<svg
	width="180"
	height="119"
	viewBox="0 0 180 119"
	fill="none"
	xmlns="http://www.w3.org/2000/svg"
>
	<path
		d="M99.0823 62.5L110.5 46L112.582 53.5C115.582 67 125.582 73 125.582 73C138.082 78 147.582 73 147.582 73C158.082 69 161.082 57 161.082 57H178.582C178.082 71 162.582 83.5 162.582 83.5C136.582 102.5 113.082 83.5 113.082 83.5C104.582 77 99.0823 62.5 99.0823 62.5Z"
		fill="url(#paint0_linear_236_38)"
	/>
	<path
		d="M19.5823 0H0.0822754V34H19.5823V0Z"
		fill="url(#paint1_linear_236_38)"
	/>
	<path
		d="M87.0823 0H68.0823V48L87.0823 20V0Z"
		fill="url(#paint2_linear_236_38)"
	/>
	<path
		d="M81.2618 42.8667C49.7649 96.166 17.5 68.5 19.5 42.8667H0.082343C-0.417725 50 1.52283 56.2946 1.52283 56.2946C20.9592 115 79.8774 91.9309 95.2161 55.7781C104.187 38.7348 121.63 18.0761 136.082 20.142V0C99.7014 2.06586 81.2618 42.8667 81.2618 42.8667Z"
		fill="url(#paint3_linear_236_38)"
	/>
	<path
		d="M179.082 34C179.082 16.5 160.582 2 146.082 0V20C146.082 20 158.582 20.5 163.082 34H179.082Z"
		fill="url(#paint4_linear_236_38)"
	/>
	<path
		d="M58.992 113.864C59.3547 113.864 59.6773 113.805 59.96 113.688C60.248 113.565 60.4907 113.392 60.688 113.168C60.8853 112.944 61.0347 112.672 61.136 112.352C61.2427 112.027 61.296 111.659 61.296 111.248V104.344H64V111.248C64 111.963 63.8827 112.619 63.648 113.216C63.4187 113.813 63.088 114.328 62.656 114.76C62.224 115.192 61.6987 115.528 61.08 115.768C60.4613 116.008 59.7653 116.128 58.992 116.128C58.2133 116.128 57.5147 116.008 56.896 115.768C56.2773 115.528 55.752 115.192 55.32 114.76C54.888 114.328 54.5573 113.813 54.328 113.216C54.0987 112.619 53.984 111.963 53.984 111.248V104.344H56.688V111.24C56.688 111.651 56.7387 112.019 56.84 112.344C56.9467 112.664 57.0987 112.939 57.296 113.168C57.4933 113.392 57.7333 113.565 58.016 113.688C58.304 113.805 58.6293 113.864 58.992 113.864ZM76.2884 104.344V116H74.8804C74.6724 116 74.4964 115.968 74.3524 115.904C74.2137 115.835 74.075 115.717 73.9364 115.552L68.4404 108.6C68.4617 108.808 68.475 109.011 68.4804 109.208C68.491 109.4 68.4964 109.581 68.4964 109.752V116H66.1124V104.344H67.5364C67.6537 104.344 67.7524 104.349 67.8324 104.36C67.9124 104.371 67.9844 104.392 68.0484 104.424C68.1124 104.451 68.1737 104.491 68.2324 104.544C68.291 104.597 68.3577 104.669 68.4324 104.76L73.9764 111.76C73.9497 111.536 73.931 111.32 73.9204 111.112C73.9097 110.899 73.9044 110.699 73.9044 110.512V104.344H76.2884ZM81.2699 116H78.5499V104.344H81.2699V116ZM91.3746 112.984C91.4386 112.984 91.5026 112.997 91.5666 113.024C91.6306 113.045 91.692 113.085 91.7506 113.144L92.8226 114.272C92.3533 114.885 91.764 115.349 91.0546 115.664C90.3506 115.973 89.516 116.128 88.5506 116.128C87.6653 116.128 86.8706 115.979 86.1666 115.68C85.468 115.376 84.8733 114.96 84.3826 114.432C83.8973 113.899 83.524 113.269 83.2626 112.544C83.0013 111.813 82.8706 111.021 82.8706 110.168C82.8706 109.299 83.012 108.501 83.2946 107.776C83.5773 107.045 83.9746 106.416 84.4866 105.888C84.9986 105.36 85.612 104.949 86.3266 104.656C87.0413 104.363 87.828 104.216 88.6866 104.216C89.124 104.216 89.5346 104.256 89.9186 104.336C90.308 104.411 90.6706 104.517 91.0066 104.656C91.3426 104.789 91.652 104.952 91.9346 105.144C92.2173 105.336 92.468 105.544 92.6866 105.768L91.7746 106.992C91.716 107.067 91.6466 107.136 91.5666 107.2C91.4866 107.259 91.3746 107.288 91.2306 107.288C91.1346 107.288 91.044 107.267 90.9586 107.224C90.8733 107.181 90.7826 107.131 90.6866 107.072C90.5906 107.008 90.484 106.941 90.3666 106.872C90.2546 106.797 90.1186 106.731 89.9586 106.672C89.804 106.608 89.62 106.555 89.4066 106.512C89.1986 106.469 88.9533 106.448 88.6706 106.448C88.2226 106.448 87.812 106.531 87.4386 106.696C87.0706 106.861 86.7506 107.104 86.4786 107.424C86.212 107.739 86.004 108.128 85.8546 108.592C85.7106 109.051 85.6386 109.576 85.6386 110.168C85.6386 110.765 85.7186 111.296 85.8786 111.76C86.044 112.224 86.2653 112.616 86.5426 112.936C86.8253 113.251 87.1533 113.491 87.5266 113.656C87.9 113.821 88.3 113.904 88.7266 113.904C88.972 113.904 89.196 113.893 89.3986 113.872C89.6013 113.845 89.7906 113.805 89.9666 113.752C90.1426 113.693 90.308 113.619 90.4626 113.528C90.6173 113.432 90.7746 113.312 90.9346 113.168C90.9986 113.115 91.068 113.072 91.1426 113.04C91.2173 113.003 91.2946 112.984 91.3746 112.984ZM105.177 110.168C105.177 111.011 105.031 111.795 104.737 112.52C104.449 113.245 104.041 113.877 103.513 114.416C102.985 114.949 102.348 115.368 101.601 115.672C100.86 115.976 100.036 116.128 99.1294 116.128C98.2227 116.128 97.396 115.976 96.6494 115.672C95.9027 115.368 95.2627 114.949 94.7294 114.416C94.2014 113.877 93.7907 113.245 93.4974 112.52C93.2094 111.795 93.0654 111.011 93.0654 110.168C93.0654 109.325 93.2094 108.541 93.4974 107.816C93.7907 107.091 94.2014 106.461 94.7294 105.928C95.2627 105.395 95.9027 104.976 96.6494 104.672C97.396 104.368 98.2227 104.216 99.1294 104.216C100.036 104.216 100.86 104.371 101.601 104.68C102.348 104.984 102.985 105.403 103.513 105.936C104.041 106.469 104.449 107.099 104.737 107.824C105.031 108.549 105.177 109.331 105.177 110.168ZM102.409 110.168C102.409 109.592 102.335 109.075 102.185 108.616C102.036 108.152 101.82 107.76 101.537 107.44C101.26 107.12 100.919 106.875 100.513 106.704C100.108 106.533 99.6467 106.448 99.1294 106.448C98.6067 106.448 98.14 106.533 97.7294 106.704C97.324 106.875 96.98 107.12 96.6974 107.44C96.42 107.76 96.2067 108.152 96.0574 108.616C95.908 109.075 95.8334 109.592 95.8334 110.168C95.8334 110.749 95.908 111.272 96.0574 111.736C96.2067 112.195 96.42 112.584 96.6974 112.904C96.98 113.224 97.324 113.469 97.7294 113.64C98.14 113.805 98.6067 113.888 99.1294 113.888C99.6467 113.888 100.108 113.805 100.513 113.64C100.919 113.469 101.26 113.224 101.537 112.904C101.82 112.584 102.036 112.195 102.185 111.736C102.335 111.272 102.409 110.749 102.409 110.168ZM117.345 110.168C117.345 111.011 117.198 111.789 116.905 112.504C116.617 113.213 116.209 113.829 115.681 114.352C115.153 114.869 114.515 115.275 113.769 115.568C113.027 115.856 112.203 116 111.297 116H106.769V104.344H111.297C112.203 104.344 113.027 104.491 113.769 104.784C114.515 105.077 115.153 105.483 115.681 106C116.209 106.517 116.617 107.133 116.905 107.848C117.198 108.557 117.345 109.331 117.345 110.168ZM114.577 110.168C114.577 109.592 114.502 109.072 114.353 108.608C114.203 108.144 113.987 107.752 113.705 107.432C113.427 107.107 113.086 106.859 112.681 106.688C112.275 106.512 111.814 106.424 111.297 106.424H109.489V113.92H111.297C111.814 113.92 112.275 113.835 112.681 113.664C113.086 113.488 113.427 113.24 113.705 112.92C113.987 112.595 114.203 112.2 114.353 111.736C114.502 111.272 114.577 110.749 114.577 110.168ZM121.661 106.424V109.144H125.325V111.144H121.661V113.92H126.444V116H118.941V104.344H126.444V106.424H121.661Z"
		fill="url(#paint5_linear_236_38)"
	/>
	<defs>
		<linearGradient
			id="paint0_linear_236_38"
			x1="138.832"
			y1="45.5263"
			x2="138.832"
			y2="91.9444"
			gradientUnits="userSpaceOnUse"
		>
			<stop stop-color="#09C1D7" />
			<stop offset="1" stop-color="#77CE90" />
		</linearGradient>
		<linearGradient
			id="paint1_linear_236_38"
			x1="9.83228"
			y1="0"
			x2="9.83228"
			y2="34.5"
			gradientUnits="userSpaceOnUse"
		>
			<stop stop-color="#09C1D7" />
			<stop offset="1" stop-color="#77CE90" />
		</linearGradient>
		<linearGradient
			id="paint2_linear_236_38"
			x1="77.5823"
			y1="-0.494845"
			x2="77.5823"
			y2="48"
			gradientUnits="userSpaceOnUse"
		>
			<stop stop-color="#09C1D7" />
			<stop offset="1" stop-color="#77CE90" />
		</linearGradient>
		<linearGradient
			id="paint3_linear_236_38"
			x1="68.0412"
			y1="-0.949923"
			x2="68.0412"
			y2="92.1425"
			gradientUnits="userSpaceOnUse"
		>
			<stop stop-color="#09C1D7" />
			<stop offset="1" stop-color="#77CE90" />
		</linearGradient>
		<linearGradient
			id="paint4_linear_236_38"
			x1="162.582"
			y1="-0.350515"
			x2="162.582"
			y2="34"
			gradientUnits="userSpaceOnUse"
		>
			<stop stop-color="#09C1D7" />
			<stop offset="1" stop-color="#77CE90" />
		</linearGradient>
		<linearGradient
			id="paint5_linear_236_38"
			x1="53.4598"
			y1="109.073"
			x2="126.401"
			y2="109.432"
			gradientUnits="userSpaceOnUse"
		>
			<stop stop-color="#096ECB" />
			<stop offset="1" stop-color="#079D31" />
		</linearGradient>
	</defs>
</svg>
